<?xml version="1.0" encoding="utf-8"?>
<!-- Generator: Adobe Illustrator 27.2.0, SVG Export Plug-In . SVG Version: 6.00 Build 0)  -->
<svg version="1.1" id="Layer_1" xmlns="http://www.w3.org/2000/svg" xmlns:xlink="http://www.w3.org/1999/xlink" x="0px" y="0px"
	 viewBox="0 0 1024 429.4" style="enable-background:new 0 0 1024 429.4;" xml:space="preserve">
	 <mask id="logo-mask">
	 <polygon fill="#ffffff" points="200, 0, 400, 400, 0 , 400"></polygon>
	 </mask>
<style type="text/css">
	.st0{fill:#FFFFFF;}
	.st1{fill:none;}
</style>
<g id="Florence_Square" transform="translate(-871.398 -62)">
	<path id="Path_13476" class="st0" d="M979,433.9c14.6,8.2,31.2,12.2,48,11.4c19.5,0,34.7-4.4,45.6-13.1c10.9-8.8,17-22.2,16.3-36.2
		c0.6-11.2-3.4-22.2-11.1-30.3c-9.4-8.3-21-13.7-33.5-15.4l-26.5-5.4c-7.5-1-14.6-3.7-20.8-8.1c-3.9-3.2-6.2-7.9-6.2-13
		c-0.1-5.8,2.7-11.2,7.6-14.4c6.8-4,14.6-5.9,22.5-5.4c18,0,30.4,7.1,37.3,21.3l26.7-9.5c-4.9-11.7-13.5-21.5-24.4-27.9
		c-12.3-6.8-26.3-10.1-40.3-9.6c-18.7,0-33.3,4.2-43.8,12.7c-10.5,8.3-16.3,21.2-15.8,34.6c0,24.2,15.3,39.3,45.8,45.5l25.7,5.1
		c17.5,3.4,26.2,10.6,26.2,21.6c0.1,6.5-3.3,12.6-8.9,15.9c-7.2,4.3-15.4,6.3-23.8,5.9c-9.3,0.2-18.5-2.1-26.5-6.8
		c-7.8-4.8-13.8-12.1-17-20.7l-27.5,9C958.2,414.8,966.9,426.5,979,433.9 M1211.4,425.3v66h25.7l38.6-32.9l-13.9-16.7l-20,19V316.6
		h-28v20.6c-4.3-7.2-10.4-13.1-17.7-17.1c-7.9-4.2-16.8-6.2-25.7-6c-11.1-0.2-22,2.9-31.4,8.9c-9.3,5.9-16.8,14.2-21.8,23.9
		c-5.3,10.2-8.1,21.5-8,33c-0.1,11.5,2.6,22.8,8,33c5,9.7,12.6,17.9,21.8,23.8c9.4,5.9,20.3,8.9,31.4,8.7c8.2,0.2,16.4-1.7,23.8-5.3
		C1200.9,436.6,1206.9,431.5,1211.4,425.3 M1201.5,407.4c-6.7,7.3-16.2,11.3-26.1,10.9c-9.9,0.4-19.4-3.6-26.1-10.9
		c-6.7-7.6-10.3-17.5-9.9-27.6c-0.4-10.1,3.2-20,9.9-27.6c6.7-7.3,16.2-11.3,26.1-10.9c9.9-0.4,19.4,3.6,26.1,10.9
		c6.7,7.6,10.3,17.5,9.9,27.6C1211.8,390,1208.2,399.8,1201.5,407.4 M1289.2,431.3c9.3,9.5,22.1,14.5,35.3,14c9,0.2,17.9-2,25.7-6.4
		c7.3-4.2,13.4-10.4,17.5-17.7l20,25.4l22.9-18.8l-21.8-27v-84.3h-30.3v74.8c0.3,7.2-2.5,14.2-7.7,19.3c-5.1,4.9-11.9,7.6-19,7.5
		c-7.1,0.3-14-2.6-18.8-7.8c-5.1-6.1-7.7-14-7.2-22v-71.7h-30v75.3C1274.8,406.3,1279.6,420.5,1289.2,431.3 M1452.7,436.6
		c10,5.9,21.5,8.9,33.2,8.7c9.5,0.1,18.8-2.2,27.1-6.7c8.1-4.4,15-10.8,20.2-18.5l20.3,26l23.1-18.5l-22.1-27v-84.1h-27.7v19.8
		c-4.1-6.9-10-12.5-17-16.5c-7.7-4.1-16.2-6.1-24.9-5.9c-11.5-0.2-22.8,2.9-32.6,8.8c-9.5,5.8-17.2,14.1-22.4,23.9
		c-5.3,10.2-8.1,21.5-8,33c-0.1,11.5,2.7,22.9,8.1,33C1435.2,422.7,1443.1,431,1452.7,436.6 M1514.4,407.3
		c-6.6,7.4-16.1,11.5-26,11.1c-9.9,0.4-19.5-3.7-26.2-11.1c-6.7-7.5-10.3-17.4-10-27.5c-0.4-10.2,3.2-20.1,10-27.6
		c6.7-7.3,16.3-11.3,26.2-10.9c9.8-0.4,19.4,3.6,26,10.9c6.6,7.6,10.1,17.5,9.8,27.6C1524.5,389.9,1521,399.7,1514.4,407.3
		 M1602.3,442.8h30.3v-66.3c-0.8-9.9,3.4-19.6,11.1-25.8c9.2-6.1,20.1-9,31.1-8.3V314c-10.4-0.2-20.6,2.1-29.9,6.6
		c-8.5,4.1-15.8,10.2-21.2,17.9l-20.3-25.7l-22.6,18.8l21.6,27L1602.3,442.8z M1714.9,385.5h96.9c0.2-1.7,0.3-4.2,0.3-7.5
		c0.9-17.1-5-33.9-16.5-46.6c-12-12-28.6-18.3-45.5-17.3c-11.9-0.2-23.7,2.8-33.9,8.9c-9.8,5.7-17.8,14-23.3,23.9
		c-5.6,10.1-8.5,21.5-8.4,33c-0.1,11.5,2.8,22.9,8.4,33c5.5,9.9,13.6,18.2,23.5,23.8c10.6,5.9,22.5,9,34.7,8.7
		c11.9,0.3,23.6-2.6,33.9-8.5c9.5-5.7,17.3-13.7,22.6-23.4l-20.8-13.9c-3.4,6.3-8.3,11.6-14.3,15.4c-6.1,3.8-13.2,5.8-20.4,5.7
		c-9.7,0.4-19.1-3.1-26.1-9.8C1719.3,404.1,1715.3,395.1,1714.9,385.5 M1729.4,344.9c6-4.5,13.4-6.9,20.9-6.7
		c7.4-0.4,14.7,2,20.6,6.6c5.5,5,9.1,11.6,10.3,18.9h-64C1719.2,356.3,1723.4,349.7,1729.4,344.9"/>
	<path id="Path_13477" class="st0" d="M983.7,83.8H871.4v161.9h30.8v-60.9h71.2v-26.5h-71.2v-46.5h81.5V83.8z M1044.1,62h-30.3
		v183.7h30.3V62z M1103.1,239.6c10.5,5.9,22.5,8.9,34.6,8.7c12.1,0.2,23.9-2.8,34.4-8.7c9.9-5.6,18.1-13.8,23.6-23.8
		c5.7-10.1,8.6-21.5,8.5-33c0.1-11.6-2.8-22.9-8.5-33c-5.6-10-13.8-18.2-23.6-23.9c-10.5-6-22.4-9.1-34.4-8.9
		c-12.1-0.2-24,2.9-34.6,8.9c-10,5.7-18.2,13.9-23.8,23.9c-5.7,10.1-8.6,21.5-8.5,33c-0.1,11.6,2.8,22.9,8.5,33
		C1084.9,225.8,1093.1,234,1103.1,239.6 M1164,210.4c-6.7,7.3-16.4,11.3-26.3,10.9c-10,0.3-19.6-3.7-26.3-11.1
		c-6.8-7.5-10.5-17.4-10.2-27.5c-0.4-10.2,3.2-20.1,10-27.6c6.8-7.3,16.5-11.3,26.5-10.9c10-0.4,19.6,3.6,26.3,10.9
		c6.7,7.6,10.3,17.5,9.9,27.6C1174.2,192.9,1170.7,202.8,1164,210.4 M1238.1,245.8h30.3v-66.3c-0.8-9.9,3.4-19.6,11.1-25.8
		c9.2-6.1,20.1-9,31.1-8.3V117c-10.4-0.2-20.6,2.1-29.9,6.5c-8.5,4.1-15.8,10.2-21.2,17.9l-20.3-25.7l-22.6,18.8l21.6,27
		L1238.1,245.8z M1350.7,188.4h96.9c0.2-1.7,0.3-4.2,0.3-7.5c0.9-17.1-5-33.9-16.4-46.6c-12-12-28.6-18.3-45.5-17.3
		c-11.9-0.2-23.6,2.9-33.9,8.9c-9.8,5.7-17.8,14-23.3,23.9c-5.6,10.1-8.5,21.5-8.4,33c-0.1,11.5,2.8,22.9,8.4,33
		c5.5,9.9,13.6,18.2,23.5,23.8c10.6,5.9,22.5,9,34.7,8.7c11.9,0.3,23.6-2.6,33.9-8.5c9.5-5.7,17.3-13.7,22.6-23.4l-20.8-13.9
		c-3.4,6.3-8.3,11.6-14.3,15.4c-6.1,3.8-13.2,5.8-20.4,5.7c-9.7,0.4-19.1-3.1-26.1-9.8C1355.2,207.1,1351.2,198,1350.7,188.4
		 M1365.2,147.9c6-4.5,13.4-6.9,20.9-6.7c7.4-0.4,14.7,1.9,20.5,6.5c5.5,5,9.1,11.6,10.3,18.9h-64
		C1355,159.2,1359.3,152.6,1365.2,147.9 M1482,245.8h30.3V171c-0.3-7.2,2.6-14.3,7.8-19.3c5.3-5,12.4-7.7,19.6-7.5
		c7.2-0.2,14.2,2.6,19.3,7.7c5.3,5.6,8.1,13.1,7.7,20.8v73h30.3v-76.3c0.8-14.2-4.3-28.1-14-38.4c-9.6-9.4-22.7-14.5-36.1-14
		c-9.2-0.2-18.4,2-26.5,6.4c-7.4,4.1-13.5,10.3-17.5,17.7l-20-25.2l-22.9,18.5l21.8,27.2V245.8z M1653.7,239.6
		c10.4,5.9,22.2,8.9,34.2,8.7c13.9,0.4,27.5-3.9,38.7-12.2c10.6-8.1,18.4-19.4,22-32.3l-27.5-8c-2,7.3-6.2,13.8-12.1,18.5
		c-14.4,10.6-34.5,8.9-46.9-4.1c-6.7-7.6-10.2-17.4-9.9-27.5c-0.3-10.1,3.2-19.9,9.9-27.5c12.4-13,32.6-14.8,47-4
		c5.9,4.8,10.2,11.3,12.2,18.6l27.5-7.7c-3.4-13-11.1-24.6-21.8-32.8c-11.2-8.5-25-12.9-39.1-12.5c-12-0.2-23.8,2.9-34.2,8.9
		c-9.9,5.7-18,13.9-23.5,23.9c-5.6,10.1-8.5,21.5-8.3,33c-0.1,11.5,2.8,22.9,8.3,33C1635.7,225.8,1643.8,234,1653.7,239.6
		 M1798.2,188.4h96.9c0.2-1.7,0.3-4.2,0.3-7.5c0.9-17.1-5-33.9-16.4-46.6c-12-12-28.6-18.3-45.5-17.3c-11.9-0.2-23.6,2.9-33.9,8.9
		c-9.8,5.7-17.8,14-23.3,23.9c-5.6,10.1-8.5,21.5-8.4,33c-0.1,11.5,2.8,22.9,8.4,33c5.5,9.9,13.6,18.2,23.5,23.8
		c10.6,5.9,22.5,9,34.7,8.7c11.9,0.3,23.6-2.6,33.9-8.5c9.5-5.7,17.3-13.7,22.6-23.4l-20.8-13.9c-3.4,6.3-8.3,11.6-14.3,15.4
		c-6.1,3.8-13.2,5.8-20.4,5.7c-9.7,0.4-19.1-3.1-26.1-9.8C1802.6,207.1,1798.6,198,1798.2,188.4 M1812.7,147.9
		c6-4.5,13.4-6.9,20.9-6.7c7.4-0.4,14.7,2,20.6,6.6c5.5,4.9,9.1,11.6,10.3,18.9h-64C1802.4,159.3,1806.7,152.7,1812.7,147.9"/>
	<path id="Path_13478" class="st1" d="M871.4,491.4h1023.9V62H871.4V491.4z"/>
</g>
</svg>
