<svg xmlns="http://www.w3.org/2000/svg" width="157.954" height="39.261"><g id="CBRE_Logo" transform="translate(-175 -8205.597)" fill="#fff"><path id="Path_13449" data-name="Path 13449" d="M0 0c4.991-1.659 5.9-5.848 5.884-9.264-.01-5.214-3.69-9.725-14.584-9.725h-20.334v39.177h20.28c10.96 0 14.993-5.626 14.993-11.262A9.577 9.577 0 0 0 0 0m-19.384-10.468h13.692l.048.011a3.2 3.2 0 0 1 2.67 3.128 3.347 3.347 0 0 1-2.8 3.28l-13.6.022Zm13.032 21.525h-13.032V4.5h13.381a3.264 3.264 0 0 1 2.92 3.213 3.38 3.38 0 0 1-3.269 3.343" transform="translate(246.811 8224.588)"/><path id="Path_13450" data-name="Path 13450" d="M0 0h34.36l-.016 8.55H9.547l.025 6.314h22.353v8.6H9.572V30.3h24.8l-.007 8.959H0Z" transform="translate(298.584 8205.604)"/><path id="Path_13451" data-name="Path 13451" d="M0 0h-20.78v39.193h9.541V23.335l10.51-.011a5.464 5.464 0 0 1 5.35 5.552v10.283h9.34l-.018-12.649c0-5.862-5.661-7.593-5.661-7.593a8.765 8.765 0 0 0 5.786-8.659C14.068 1.779 6.786 0 0 0m5.208 12.16a3.247 3.247 0 0 1-3.068 2.686l-13.41.006V8.576H2.146a3.077 3.077 0 0 1 3.062 2.729Z" transform="translate(278.595 8205.652)"/><path id="Path_13469" data-name="Path 13469" d="M0 0c-.137 0-13.044.252-17.5-.182-7.175-.7-9.718-6.018-9.718-10.358 0-5.409 3.687-9.39 9.4-10.138 2.719-.357 17.579-.189 17.737-.186h.312l.032-8.911H-.05l-16.82.03a25.011 25.011 0 0 0-8.159 1.6 19.964 19.964 0 0 0-7.7 6.223 19.47 19.47 0 0 0-3.864 11.681 23.576 23.576 0 0 0 .322 3.926A19.074 19.074 0 0 0-25.577 7.2c1.886.832 4.794 1.826 10.661 2.154l3.162.068 11.725.012H.28L.314 0Z" transform="translate(211.589 8235.376)"/></g></svg>