<svg version="1.1" id="Layer_1" xmlns="http://www.w3.org/2000/svg" x="0" y="0" viewBox="0 0 1024 429.4" style="enable-background:new 0 0 1024 429.4" xml:space="preserve"><mask id="logo-mask"><path fill="#fff" d="m200 0 200 400H0z"/></mask><style>.st0{fill:#fff}</style><g id="Florence_Square" transform="translate(-871.398 -62)"><path id="Path_13476" class="st0" d="M979 433.9c14.6 8.2 31.2 12.2 48 11.4 19.5 0 34.7-4.4 45.6-13.1 10.9-8.8 17-22.2 16.3-36.2.6-11.2-3.4-22.2-11.1-30.3-9.4-8.3-21-13.7-33.5-15.4l-26.5-5.4c-7.5-1-14.6-3.7-20.8-8.1-3.9-3.2-6.2-7.9-6.2-13-.1-5.8 2.7-11.2 7.6-14.4 6.8-4 14.6-5.9 22.5-5.4 18 0 30.4 7.1 37.3 21.3l26.7-9.5c-4.9-11.7-13.5-21.5-24.4-27.9-12.3-6.8-26.3-10.1-40.3-9.6-18.7 0-33.3 4.2-43.8 12.7-10.5 8.3-16.3 21.2-15.8 34.6 0 24.2 15.3 39.3 45.8 45.5l25.7 5.1c17.5 3.4 26.2 10.6 26.2 21.6.1 6.5-3.3 12.6-8.9 15.9-7.2 4.3-15.4 6.3-23.8 5.9-9.3.2-18.5-2.1-26.5-6.8-7.8-4.8-13.8-12.1-17-20.7l-27.5 9c3.6 13.7 12.3 25.4 24.4 32.8m232.4-8.6v66h25.7l38.6-32.9-13.9-16.7-20 19V316.6h-28v20.6c-4.3-7.2-10.4-13.1-17.7-17.1-7.9-4.2-16.8-6.2-25.7-6-11.1-.2-22 2.9-31.4 8.9-9.3 5.9-16.8 14.2-21.8 23.9-5.3 10.2-8.1 21.5-8 33-.1 11.5 2.6 22.8 8 33 5 9.7 12.6 17.9 21.8 23.8 9.4 5.9 20.3 8.9 31.4 8.7 8.2.2 16.4-1.7 23.8-5.3 6.7-3.5 12.7-8.6 17.2-14.8m-9.9-17.9c-6.7 7.3-16.2 11.3-26.1 10.9-9.9.4-19.4-3.6-26.1-10.9-6.7-7.6-10.3-17.5-9.9-27.6-.4-10.1 3.2-20 9.9-27.6 6.7-7.3 16.2-11.3 26.1-10.9 9.9-.4 19.4 3.6 26.1 10.9 6.7 7.6 10.3 17.5 9.9 27.6.4 10.2-3.2 20-9.9 27.6m87.7 23.9c9.3 9.5 22.1 14.5 35.3 14 9 .2 17.9-2 25.7-6.4 7.3-4.2 13.4-10.4 17.5-17.7l20 25.4 22.9-18.8-21.8-27v-84.3h-30.3v74.8c.3 7.2-2.5 14.2-7.7 19.3-5.1 4.9-11.9 7.6-19 7.5-7.1.3-14-2.6-18.8-7.8-5.1-6.1-7.7-14-7.2-22v-71.7h-30v75.3c-1 14.4 3.8 28.6 13.4 39.4m163.5 5.3c10 5.9 21.5 8.9 33.2 8.7 9.5.1 18.8-2.2 27.1-6.7 8.1-4.4 15-10.8 20.2-18.5l20.3 26 23.1-18.5-22.1-27v-84.1h-27.7v19.8c-4.1-6.9-10-12.5-17-16.5-7.7-4.1-16.2-6.1-24.9-5.9-11.5-.2-22.8 2.9-32.6 8.8-9.5 5.8-17.2 14.1-22.4 23.9-5.3 10.2-8.1 21.5-8 33-.1 11.5 2.7 22.9 8.1 33 5.2 10.1 13.1 18.4 22.7 24m61.7-29.3c-6.6 7.4-16.1 11.5-26 11.1-9.9.4-19.5-3.7-26.2-11.1-6.7-7.5-10.3-17.4-10-27.5-.4-10.2 3.2-20.1 10-27.6 6.7-7.3 16.3-11.3 26.2-10.9 9.8-.4 19.4 3.6 26 10.9 6.6 7.6 10.1 17.5 9.8 27.6.3 10.1-3.2 19.9-9.8 27.5m87.9 35.5h30.3v-66.3c-.8-9.9 3.4-19.6 11.1-25.8 9.2-6.1 20.1-9 31.1-8.3V314c-10.4-.2-20.6 2.1-29.9 6.6-8.5 4.1-15.8 10.2-21.2 17.9l-20.3-25.7-22.6 18.8 21.6 27-.1 84.2zm112.6-57.3h96.9c.2-1.7.3-4.2.3-7.5.9-17.1-5-33.9-16.5-46.6-12-12-28.6-18.3-45.5-17.3-11.9-.2-23.7 2.8-33.9 8.9-9.8 5.7-17.8 14-23.3 23.9-5.6 10.1-8.5 21.5-8.4 33-.1 11.5 2.8 22.9 8.4 33 5.5 9.9 13.6 18.2 23.5 23.8 10.6 5.9 22.5 9 34.7 8.7 11.9.3 23.6-2.6 33.9-8.5 9.5-5.7 17.3-13.7 22.6-23.4l-20.8-13.9c-3.4 6.3-8.3 11.6-14.3 15.4-6.1 3.8-13.2 5.8-20.4 5.7-9.7.4-19.1-3.1-26.1-9.8-6.7-6.8-10.7-15.8-11.1-25.4m14.5-40.6c6-4.5 13.4-6.9 20.9-6.7 7.4-.4 14.7 2 20.6 6.6 5.5 5 9.1 11.6 10.3 18.9h-64c2-7.4 6.2-14 12.2-18.8"/><path id="Path_13477" class="st0" d="M983.7 83.8H871.4v161.9h30.8v-60.9h71.2v-26.5h-71.2v-46.5h81.5v-28zm60.4-21.8h-30.3v183.7h30.3V62zm59 177.6c10.5 5.9 22.5 8.9 34.6 8.7 12.1.2 23.9-2.8 34.4-8.7 9.9-5.6 18.1-13.8 23.6-23.8 5.7-10.1 8.6-21.5 8.5-33 .1-11.6-2.8-22.9-8.5-33-5.6-10-13.8-18.2-23.6-23.9-10.5-6-22.4-9.1-34.4-8.9-12.1-.2-24 2.9-34.6 8.9-10 5.7-18.2 13.9-23.8 23.9-5.7 10.1-8.6 21.5-8.5 33-.1 11.6 2.8 22.9 8.5 33 5.6 10 13.8 18.2 23.8 23.8m60.9-29.2c-6.7 7.3-16.4 11.3-26.3 10.9-10 .3-19.6-3.7-26.3-11.1-6.8-7.5-10.5-17.4-10.2-27.5-.4-10.2 3.2-20.1 10-27.6 6.8-7.3 16.5-11.3 26.5-10.9 10-.4 19.6 3.6 26.3 10.9 6.7 7.6 10.3 17.5 9.9 27.6.3 10.2-3.2 20.1-9.9 27.7m74.1 35.4h30.3v-66.3c-.8-9.9 3.4-19.6 11.1-25.8 9.2-6.1 20.1-9 31.1-8.3V117c-10.4-.2-20.6 2.1-29.9 6.5-8.5 4.1-15.8 10.2-21.2 17.9l-20.3-25.7-22.6 18.8 21.6 27-.1 84.3zm112.6-57.4h96.9c.2-1.7.3-4.2.3-7.5.9-17.1-5-33.9-16.4-46.6-12-12-28.6-18.3-45.5-17.3-11.9-.2-23.6 2.9-33.9 8.9-9.8 5.7-17.8 14-23.3 23.9-5.6 10.1-8.5 21.5-8.4 33-.1 11.5 2.8 22.9 8.4 33 5.5 9.9 13.6 18.2 23.5 23.8 10.6 5.9 22.5 9 34.7 8.7 11.9.3 23.6-2.6 33.9-8.5 9.5-5.7 17.3-13.7 22.6-23.4l-20.8-13.9c-3.4 6.3-8.3 11.6-14.3 15.4-6.1 3.8-13.2 5.8-20.4 5.7-9.7.4-19.1-3.1-26.1-9.8-6.7-6.7-10.7-15.8-11.2-25.4m14.5-40.5c6-4.5 13.4-6.9 20.9-6.7 7.4-.4 14.7 1.9 20.5 6.5 5.5 5 9.1 11.6 10.3 18.9h-64c2.1-7.4 6.4-14 12.3-18.7m116.8 97.9h30.3V171c-.3-7.2 2.6-14.3 7.8-19.3 5.3-5 12.4-7.7 19.6-7.5 7.2-.2 14.2 2.6 19.3 7.7 5.3 5.6 8.1 13.1 7.7 20.8v73h30.3v-76.3c.8-14.2-4.3-28.1-14-38.4-9.6-9.4-22.7-14.5-36.1-14-9.2-.2-18.4 2-26.5 6.4-7.4 4.1-13.5 10.3-17.5 17.7l-20-25.2-22.9 18.5 21.8 27.2v84.2zm171.7-6.2c10.4 5.9 22.2 8.9 34.2 8.7 13.9.4 27.5-3.9 38.7-12.2 10.6-8.1 18.4-19.4 22-32.3l-27.5-8c-2 7.3-6.2 13.8-12.1 18.5-14.4 10.6-34.5 8.9-46.9-4.1-6.7-7.6-10.2-17.4-9.9-27.5-.3-10.1 3.2-19.9 9.9-27.5 12.4-13 32.6-14.8 47-4 5.9 4.8 10.2 11.3 12.2 18.6l27.5-7.7c-3.4-13-11.1-24.6-21.8-32.8-11.2-8.5-25-12.9-39.1-12.5-12-.2-23.8 2.9-34.2 8.9-9.9 5.7-18 13.9-23.5 23.9-5.6 10.1-8.5 21.5-8.3 33-.1 11.5 2.8 22.9 8.3 33 5.5 10.2 13.6 18.4 23.5 24m144.5-51.2h96.9c.2-1.7.3-4.2.3-7.5.9-17.1-5-33.9-16.4-46.6-12-12-28.6-18.3-45.5-17.3-11.9-.2-23.6 2.9-33.9 8.9-9.8 5.7-17.8 14-23.3 23.9-5.6 10.1-8.5 21.5-8.4 33-.1 11.5 2.8 22.9 8.4 33 5.5 9.9 13.6 18.2 23.5 23.8 10.6 5.9 22.5 9 34.7 8.7 11.9.3 23.6-2.6 33.9-8.5 9.5-5.7 17.3-13.7 22.6-23.4l-20.8-13.9c-3.4 6.3-8.3 11.6-14.3 15.4-6.1 3.8-13.2 5.8-20.4 5.7-9.7.4-19.1-3.1-26.1-9.8-6.8-6.7-10.8-15.8-11.2-25.4m14.5-40.5c6-4.5 13.4-6.9 20.9-6.7 7.4-.4 14.7 2 20.6 6.6 5.5 4.9 9.1 11.6 10.3 18.9h-64c1.9-7.4 6.2-14 12.2-18.8"/><path id="Path_13478" d="M871.4 491.4h1023.9V62H871.4v429.4z" style="fill:none"/></g></svg>