<svg xmlns="http://www.w3.org/2000/svg" width="161.892" height="60.798"><g id="KF_Logo" transform="translate(-509.876 -8182.387)" fill="#fff"><path id="Path_13452" data-name="Path 13452" d="M0 0v-19.435h19.448l9.8 9.792L9.793 9.8Z" transform="translate(509.876 8203.311)"/><path id="Path_13453" data-name="Path 13453" d="M0 0v-19.455l9.793-9.812L29.249-9.8 19.448 0Z" transform="translate(509.876 8242.375)"/><path id="Path_13454" data-name="Path 13454" d="m0 0-9.794-9.8 19.47-19.47 9.652 9.67V0Z" transform="translate(548.922 8242.375)"/><path id="Path_13455" data-name="Path 13455" d="m0 0 9.794-9.792h19.328V9.793l-9.651 9.647Z" transform="translate(539.124 8193.668)"/><path id="Path_13456" data-name="Path 13456" d="m0 0-.628-2.884a7.039 7.039 0 0 1-1.71.392c-1.643 0-2.107-.625-2.107-2.964v-9.2H-1.4L-.157-18h-4.288v-5.06l-4.756.772V-18h-1.873v3.349H-9.2v9.977a6.264 6.264 0 0 0 .307 2.811C-8.346-.233-6.4.866-3.981.866A11.01 11.01 0 0 0 0 0" transform="translate(671.767 8208.422)"/><path id="Path_13457" data-name="Path 13457" d="m0 0-8.625-13.408 7.766-11.537h-5.923l-7.1 11.383v-11.383h-5.07V0h5.07v-13.021L-6.345 0Z" transform="translate(596.569 8208.816)"/><path id="Path_13458" data-name="Path 13458" d="M0 0v-13.408a8.248 8.248 0 0 0-.309-2.651 4.636 4.636 0 0 0-4.447-2.653 6.749 6.749 0 0 0-3.275.78 6.408 6.408 0 0 0-2.1 1.717l-.305-2.451-4.064.659V0h4.83v-10.838a3.893 3.893 0 0 1 1.015-2.881 3.394 3.394 0 0 1 2.263-.94c1.326 0 1.713.861 1.713 2.96V0Z" transform="translate(612.42 8208.816)"/><path id="Path_13459" data-name="Path 13459" d="M0 0v-18.783l-4.84.776V0Z" transform="translate(620.904 8208.816)"/><path id="Path_13460" data-name="Path 13460" d="M0 0s-.265 1.029-.342 1.42A5.634 5.634 0 0 0-4.475-.5c-5.7 0-7.568 5.15-7.568 9.979 0 4.52 1.949 8.963 7.331 8.963a4.815 4.815 0 0 0 3.746-1.793v1.563c0 2.8-.237 4.13-3.823 4.13a12.714 12.714 0 0 1-5.535-1.557L-11.5 24.13a15.171 15.171 0 0 0 6.944 1.876c1.869 0 4.52-.314 6.236-1.8 1.792-1.477 1.869-4.13 1.869-6.7L3.572-.571Zm-.966 10.881a6.042 6.042 0 0 1-.393 2.419 2.319 2.319 0 0 1-2.184 1.4c-2.884 0-3.2-2.024-3.2-5.843 0-3.432.623-5.456 3.12-5.456A3.566 3.566 0 0 1-.966 4.565Z" transform="translate(635.813 8190.604)"/><path id="Path_13461" data-name="Path 13461" d="M0 0v-12.865a7.6 7.6 0 0 0-.47-3.35c-.548-1.636-2.416-2.646-4.758-2.646a6.779 6.779 0 0 0-5.224 2.253c0-.234.077-1.324.077-1.872v-6.935l-4.914.8V0h4.914v-10.134c0-1.7.219-2.693.781-3.351a4.113 4.113 0 0 1 3.042-1.326c1.4 0 1.872.779 1.872 2.493V0Z" transform="translate(658.206 8208.816)"/><path id="Path_13462" data-name="Path 13462" d="M0 0a2.989 2.989 0 0 1-2.978 3 2.988 2.988 0 0 1-2.978-3 2.989 2.989 0 0 1 2.978-3A2.99 2.99 0 0 1 0 0" transform="translate(621.481 8185.389)"/><path id="Path_13463" data-name="Path 13463" d="m0 0 .03-6.237A9.882 9.882 0 0 0-.286-9.51c-.7-2.026-2.8-3.2-5.922-3.2a12.04 12.04 0 0 0-5.072 1.092 23.93 23.93 0 0 0-2.9 1.545l1.78 3.181a10.275 10.275 0 0 1 5.49-1.932c1.8 0 2.228.8 2.228 2.822v.7h-1.137c-5.851 0-8.812 2.029-8.812 6.313 0 3.34 1.811 5.386 5.256 5.719h1.959a6.207 6.207 0 0 0 2.765-.96 7.139 7.139 0 0 0 1.172-1.026 5.029 5.029 0 0 0 2.007 1.987l.564.276.258-.276 2.465-2.68C.176 2.807 0 1.9 0 0m-7.38 3.275A2.185 2.185 0 0 1-9.485.859c0-2.183 1.089-3 4.445-3h.278l.006 4.278A3.514 3.514 0 0 1-7.38 3.275" transform="translate(617.796 8236.178)"/><path id="Path_13464" data-name="Path 13464" d="M0 0h-13.491v24.94h4.912V13.876h6.392V9.831h-6.392V3.987h7.956Z" transform="translate(591.063 8217.316)"/><path id="Path_13465" data-name="Path 13465" d="M0 0a3.945 3.945 0 0 0-1.8-.389c-1.79 0-3.585 1.637-4.364 2.882L-6.631 0l-3.9.634v17.84H-5.7V7.073A3.264 3.264 0 0 1-5 4.755 2.925 2.925 0 0 1-2.87 3.9a3.945 3.945 0 0 1 1.643.39Z" transform="translate(602.292 8223.782)"/><path id="Path_13466" data-name="Path 13466" d="M0 0v24.455h4.834V-.778Z" transform="translate(639.96 8217.801)"/><path id="Path_13467" data-name="Path 13467" d="m0 0 5.928-7.723H.076L-4.679.232 1.6 10.674h5.656Z" transform="translate(649.472 8231.582)"/><path id="Path_13468" data-name="Path 13468" d="M0 0v-13.407a8.059 8.059 0 0 0-.313-2.647A4.633 4.633 0 0 0-4.759-18.7a6.708 6.708 0 0 0-3.274.782 6.381 6.381 0 0 0-2.1 1.71l-.307-2.448-4.06.656V0h4.832v-10.828a3.933 3.933 0 0 1 1.017-2.891 3.407 3.407 0 0 1 2.262-.936c1.324 0 1.716.863 1.716 2.965V0Z" transform="translate(636.314 8242.256)"/></g></svg>