<svg xmlns="http://www.w3.org/2000/svg" width="177.204" height="74.308" viewBox="0 0 177.204 74.308">
  <g id="Florence_Square" data-name="Florence Square" transform="translate(-871.398 -62)">
    <path id="Path_13476" data-name="Path 13476" d="M-3.188-20.425a15.511,15.511,0,0,0,8.3,1.979q5.071,0,7.9-2.268a7.6,7.6,0,0,0,2.824-6.272,7.092,7.092,0,0,0-1.913-5.249A10.968,10.968,0,0,0,8.132-34.9l-4.581-.934a7.993,7.993,0,0,1-3.6-1.4,2.843,2.843,0,0,1-1.067-2.246A2.912,2.912,0,0,1,.193-41.975a6.7,6.7,0,0,1,3.892-.934q4.67,0,6.449,3.692l4.626-1.646a10.12,10.12,0,0,0-4.225-4.826,13.6,13.6,0,0,0-6.983-1.668q-4.848,0-7.584,2.2a7.271,7.271,0,0,0-2.735,5.983q0,6.272,7.918,7.873L6-30.411q4.537.89,4.537,3.736A3.161,3.161,0,0,1,9-23.917a7.314,7.314,0,0,1-4.115,1.023A8.71,8.71,0,0,1,.3-24.072a7.179,7.179,0,0,1-2.936-3.581L-7.391-26.1a9.393,9.393,0,0,0,4.2,5.671m40.231-1.49v11.431h4.448l6.672-5.693-2.4-2.891-3.469,3.292V-40.73H37.444v3.558a8.053,8.053,0,0,0-3.069-2.958,9.131,9.131,0,0,0-4.448-1.045A9.863,9.863,0,0,0,24.5-39.64,10.829,10.829,0,0,0,20.72-35.5a12.019,12.019,0,0,0-1.379,5.715,12.021,12.021,0,0,0,1.379,5.716A10.664,10.664,0,0,0,24.5-19.958a9.97,9.97,0,0,0,5.427,1.512,8.987,8.987,0,0,0,4.115-.912,8.327,8.327,0,0,0,3-2.557m-1.712-3.091a5.8,5.8,0,0,1-4.515,1.89,5.8,5.8,0,0,1-4.514-1.89,6.849,6.849,0,0,1-1.712-4.782A6.849,6.849,0,0,1,26.3-34.569a5.8,5.8,0,0,1,4.514-1.89,5.8,5.8,0,0,1,4.515,1.89,6.852,6.852,0,0,1,1.712,4.781,6.852,6.852,0,0,1-1.712,4.782M50.5-20.87a8.106,8.106,0,0,0,6.116,2.424,8.686,8.686,0,0,0,4.448-1.112,8.126,8.126,0,0,0,3.025-3.069l3.469,4.4,3.959-3.247-3.781-4.67V-40.73H62.485v12.944a4.435,4.435,0,0,1-1.334,3.336,4.554,4.554,0,0,1-3.292,1.29,4.2,4.2,0,0,1-3.247-1.356,5.418,5.418,0,0,1-1.245-3.8V-40.73h-5.2V-27.7A9.442,9.442,0,0,0,50.5-20.87m28.311.912a10.982,10.982,0,0,0,5.738,1.512A9.609,9.609,0,0,0,89.239-19.6a9.894,9.894,0,0,0,3.491-3.2l3.514,4.492,4-3.2-3.825-4.67V-40.73h-4.8V-37.3a7.946,7.946,0,0,0-2.936-2.847,8.682,8.682,0,0,0-4.315-1.023A10.548,10.548,0,0,0,78.72-39.64,10.6,10.6,0,0,0,74.85-35.5a12.019,12.019,0,0,0-1.379,5.715,11.868,11.868,0,0,0,1.4,5.716,10.507,10.507,0,0,0,3.937,4.114m10.675-5.071a5.7,5.7,0,0,1-4.493,1.913,5.836,5.836,0,0,1-4.537-1.913,6.819,6.819,0,0,1-1.735-4.759,6.8,6.8,0,0,1,1.735-4.781,5.869,5.869,0,0,1,4.537-1.89,5.733,5.733,0,0,1,4.493,1.89,6.905,6.905,0,0,1,1.69,4.781,6.927,6.927,0,0,1-1.69,4.759M104.7-18.89h5.249V-30.366a5.243,5.243,0,0,1,1.913-4.471,8.771,8.771,0,0,1,5.382-1.445v-4.893a11.522,11.522,0,0,0-5.182,1.135,9.605,9.605,0,0,0-3.669,3.091L104.873-41.4l-3.914,3.247,3.736,4.67Zm19.482-9.919h16.769q.044-.444.044-1.29a11.248,11.248,0,0,0-2.847-8.073,10.327,10.327,0,0,0-7.873-3A11.263,11.263,0,0,0,124.4-39.64a10.885,10.885,0,0,0-4.025,4.136,11.569,11.569,0,0,0-1.446,5.715,11.572,11.572,0,0,0,1.446,5.716,10.637,10.637,0,0,0,4.07,4.114,11.808,11.808,0,0,0,6,1.512,11.2,11.2,0,0,0,5.871-1.468,10.913,10.913,0,0,0,3.914-4.047l-3.6-2.4a7.268,7.268,0,0,1-2.468,2.668,6.431,6.431,0,0,1-3.536.979,6.15,6.15,0,0,1-4.515-1.69,6.729,6.729,0,0,1-1.935-4.4m2.513-7.027a5.733,5.733,0,0,1,3.625-1.157,5.309,5.309,0,0,1,3.558,1.135,5.637,5.637,0,0,1,1.779,3.269H124.578a6.21,6.21,0,0,1,2.113-3.247" transform="translate(893.2 146.792)" fill="#fff"/>
    <path id="Path_13477" data-name="Path 13477" d="M-14.741-2.867H-34.179V25.155h5.338V14.613H-16.52V10.032H-28.841V1.981h14.1ZM-4.289-6.648H-9.538v31.8h5.249Zm0,31.8M5.919,24.087A11.839,11.839,0,0,0,11.9,25.6a11.72,11.72,0,0,0,5.961-1.512,10.8,10.8,0,0,0,4.092-4.114,11.434,11.434,0,0,0,1.468-5.716,11.433,11.433,0,0,0-1.468-5.715,10.957,10.957,0,0,0-4.092-4.136A11.588,11.588,0,0,0,11.9,2.87,11.705,11.705,0,0,0,5.919,4.405,10.908,10.908,0,0,0,1.8,8.542,11.433,11.433,0,0,0,.336,14.257,11.434,11.434,0,0,0,1.8,19.973a10.754,10.754,0,0,0,4.115,4.114M16.46,19.039a5.853,5.853,0,0,1-4.559,1.89,5.906,5.906,0,0,1-4.559-1.913,6.77,6.77,0,0,1-1.757-4.759A6.8,6.8,0,0,1,7.319,9.476,5.923,5.923,0,0,1,11.9,7.586a5.853,5.853,0,0,1,4.559,1.89,6.851,6.851,0,0,1,1.712,4.781,6.852,6.852,0,0,1-1.712,4.782m12.832,6.116h5.249V13.679a5.243,5.243,0,0,1,1.913-4.471,8.772,8.772,0,0,1,5.382-1.445V2.87A11.522,11.522,0,0,0,36.653,4,9.605,9.605,0,0,0,32.984,7.1L29.47,2.648,25.556,5.9l3.736,4.67Zm19.482-9.919H65.543q.044-.444.044-1.29a11.25,11.25,0,0,0-2.846-8.073,10.328,10.328,0,0,0-7.873-3A11.263,11.263,0,0,0,49,4.405a10.889,10.889,0,0,0-4.025,4.136,11.571,11.571,0,0,0-1.446,5.715,11.571,11.571,0,0,0,1.446,5.716,10.641,10.641,0,0,0,4.07,4.114,11.808,11.808,0,0,0,6,1.512,11.2,11.2,0,0,0,5.871-1.468,10.919,10.919,0,0,0,3.914-4.047l-3.6-2.4a7.268,7.268,0,0,1-2.468,2.668,6.431,6.431,0,0,1-3.536.979,6.15,6.15,0,0,1-4.515-1.69,6.73,6.73,0,0,1-1.935-4.4m2.513-7.027a5.734,5.734,0,0,1,3.625-1.157A5.309,5.309,0,0,1,58.47,8.186a5.637,5.637,0,0,1,1.779,3.269H49.174a6.212,6.212,0,0,1,2.113-3.247M71.5,25.155h5.249V12.211a4.4,4.4,0,0,1,1.357-3.336,4.742,4.742,0,0,1,3.4-1.29A4.528,4.528,0,0,1,84.847,8.92a4.869,4.869,0,0,1,1.334,3.6V25.155H91.43V11.944a8.985,8.985,0,0,0-2.424-6.649A8.456,8.456,0,0,0,82.756,2.87a9.113,9.113,0,0,0-4.581,1.112A7.723,7.723,0,0,0,75.15,7.052L71.681,2.692,67.722,5.9,71.5,10.61Zm29.712-1.067a11.631,11.631,0,0,0,5.916,1.512,10.741,10.741,0,0,0,6.694-2.113,10.567,10.567,0,0,0,3.8-5.582l-4.759-1.379a6.146,6.146,0,0,1-2.091,3.2,6.163,6.163,0,0,1-8.117-.712,6.87,6.87,0,0,1-1.712-4.759A6.869,6.869,0,0,1,102.661,9.5a6.151,6.151,0,0,1,8.139-.689,6.206,6.206,0,0,1,2.113,3.225l4.76-1.334a10.512,10.512,0,0,0-3.781-5.671,10.753,10.753,0,0,0-6.761-2.158,11.5,11.5,0,0,0-5.916,1.535,10.792,10.792,0,0,0-4.07,4.136A11.577,11.577,0,0,0,95.7,14.257a11.577,11.577,0,0,0,1.445,5.716,10.639,10.639,0,0,0,4.07,4.114m25-8.851h16.769q.044-.444.044-1.29a11.25,11.25,0,0,0-2.846-8.073,10.328,10.328,0,0,0-7.873-3,11.263,11.263,0,0,0-5.871,1.535,10.889,10.889,0,0,0-4.025,4.136,11.577,11.577,0,0,0-1.446,5.715,11.578,11.578,0,0,0,1.446,5.716,10.641,10.641,0,0,0,4.07,4.114,11.808,11.808,0,0,0,6,1.512,11.2,11.2,0,0,0,5.871-1.468,10.919,10.919,0,0,0,3.914-4.047l-3.6-2.4a7.265,7.265,0,0,1-2.469,2.668,6.431,6.431,0,0,1-3.536.979,6.15,6.15,0,0,1-4.515-1.69,6.729,6.729,0,0,1-1.935-4.4m2.513-7.027a5.734,5.734,0,0,1,3.625-1.157,5.308,5.308,0,0,1,3.558,1.135,5.634,5.634,0,0,1,1.78,3.269H126.612a6.212,6.212,0,0,1,2.113-3.247" transform="translate(905.577 68.648)" fill="#fff"/>
    <path id="Path_13478" data-name="Path 13478" d="M0-56.354H177.2v-74.308H0Z" transform="translate(871.398 192.662)" fill="none"/>
  </g>
</svg>
